<?xml version="1.0" standalone="yes"?>
<svg xmlns="http://www.w3.org/2000/svg" width="200" height="200">
<path style="fill:#007BFF; stroke:none;" d="M99 12.8619C93.0011 13.7444 86.208 19.4355 81 22.4213C67.9716 29.8905 54.9493 37.3838 42 44.9892C37.2653 47.77 26.9986 51.1821 24.6034 56.3789C22.6911 60.528 24 67.5083 24 72L24 107C24 115.846 20.0771 137.026 25.0278 144.39C31.0445 153.341 50.6773 160.014 60 165.424C69.3201 170.834 78.7298 176.11 88 181.603C91.6998 183.796 96.4225 187.765 101 187.149C107.087 186.33 113.749 180.589 119 177.579L158 155.15C162.683 152.462 173.056 148.699 175.397 143.621C177.309 139.472 176 132.492 176 128L176 93C176 84.1538 179.923 62.9745 174.972 55.6096C168.908 46.5874 149.377 40.0176 140 34.5756C130.68 29.1665 121.27 23.8901 112 18.3966C108.329 16.2211 103.549 12.1926 99 12.8619z"/>
<path style="fill:#fdfeff; stroke:none;" d="M78 107L122 107C122 115.421 119.158 129.973 122.603 137.671C125.408 143.938 134.765 142.554 135.852 135.957C138.657 118.936 136 99.2678 136 82C136 76.5207 137.985 66.1381 134.972 61.3804C131.868 56.4791 123.911 57.6262 122.318 63.1852C119.837 71.844 122 83.9896 122 93L78 93C78 84.5784 80.8419 70.0275 77.3966 62.3287C74.8432 56.623 66.9207 57.1411 64.0278 62.1852C61.1002 67.2896 63 77.2562 63 83C63 99.7919 61.5847 117.275 63.0586 133.996C63.6925 141.187 73.8703 145.551 77.3966 137.671C80.8419 129.972 78 115.422 78 107z"/>
</svg>
